<svg width="24" height="24" viewBox="0 0 24 24" fill="none" xmlns="http://www.w3.org/2000/svg">
<path d="M14.5438 16.9231V17.5385C14.5438 18.1913 14.2758 18.8174 13.7989 19.279C13.3219 19.7407 12.675 20 12.0005 20C11.326 20 10.6791 19.7407 10.2021 19.279C9.72513 18.8174 9.45718 18.1913 9.45718 17.5385V16.9231M18.8229 15.6704C17.8024 14.4615 17.0819 13.8462 17.0819 10.5135C17.0819 7.46154 15.4717 6.37423 14.1464 5.84615C13.9703 5.77615 13.8046 5.61538 13.751 5.44038C13.5185 4.67462 12.8668 4 12.0005 4C11.1342 4 10.482 4.675 10.252 5.44115C10.1983 5.61808 10.0326 5.77615 9.85655 5.84615C8.52967 6.375 6.92103 7.45846 6.92103 10.5135C6.91904 13.8462 6.19858 14.4615 5.17808 15.6704C4.75525 16.1712 5.12562 16.9231 5.86517 16.9231H18.1398C18.8753 16.9231 19.2433 16.1688 18.8229 15.6704Z" stroke="#606B81" stroke-linecap="round" stroke-linejoin="round"/>
</svg>
