<svg width="25" height="24" viewBox="0 0 25 24" fill="none" xmlns="http://www.w3.org/2000/svg">
<path d="M8.5 14.8125C8.50065 14.7203 8.51455 14.6287 8.54133 14.54C8.73467 14.6775 8.93733 14.8025 9.14533 14.915C10.1679 15.4602 11.3236 15.7479 12.5 15.75C13.8093 15.75 14.984 15.3837 15.8547 14.9138C16.0627 14.8013 16.2653 14.6762 16.4587 14.54C16.4853 14.6275 16.5 14.7175 16.5 14.8125C16.5 15.1875 16.2573 15.5 16.06 15.7C15.8047 15.9496 15.5113 16.1623 15.1893 16.3313C14.3692 16.7674 13.4429 16.9977 12.5 17C11.5571 16.9978 10.6308 16.7674 9.81067 16.3313C9.48839 16.1628 9.19453 15.9505 8.93867 15.7013C8.74267 15.5 8.5 15.1875 8.5 14.8125ZM8.54133 12.04C8.51402 12.1286 8.50011 12.2203 8.5 12.3125C8.5 12.6875 8.74267 13.0013 8.94 13.2C9.19536 13.4496 9.48877 13.6623 9.81067 13.8313C10.6308 14.2674 11.5571 14.4977 12.5 14.5C13.5507 14.5 14.4973 14.205 15.1893 13.8313C15.536 13.6438 15.836 13.4288 16.0613 13.2013C16.2573 13.0013 16.5 12.6888 16.5 12.3138C16.5 12.2211 16.4861 12.129 16.4587 12.04C16.2659 12.1767 16.0642 12.302 15.8547 12.415C14.8321 12.9603 13.6764 13.2479 12.5 13.25C11.3235 13.2476 10.1677 12.9595 9.14533 12.4138C8.93576 12.3013 8.73401 12.1765 8.54133 12.04ZM9.83333 9.5C9.83333 9.23375 10.0013 8.94 10.4773 8.68125C10.9547 8.42125 11.6653 8.25 12.5 8.25C13.3347 8.25 14.0453 8.42125 14.5227 8.68125C14.9987 8.94 15.1667 9.23375 15.1667 9.5C15.1667 9.76625 14.9987 10.06 14.5227 10.3188C14.0453 10.5788 13.3347 10.75 12.5 10.75C11.6653 10.75 10.9547 10.5788 10.4773 10.3188C10.0013 10.06 9.83333 9.76625 9.83333 9.5ZM12.5 7C11.4933 7 10.5373 7.20375 9.808 7.6C9.07867 7.9975 8.5 8.64125 8.5 9.5C8.5 10.3587 9.07867 11.0025 9.808 11.4C10.5373 11.7963 11.4933 12 12.5 12C13.5067 12 14.4627 11.7963 15.192 11.4C15.9213 11.0025 16.5 10.3587 16.5 9.5C16.5 8.64125 15.9213 7.9975 15.192 7.6C14.4627 7.20375 13.5067 7 12.5 7Z" fill="#FF8B00"/>
</svg>
